<?xml version="1.0" encoding="UTF-8"?>
<!-- Generated by Pixelmator Pro 3.7.1 -->
<svg width="64" height="32" viewBox="0 0 64 32" xmlns="http://www.w3.org/2000/svg">
    <path id="Rectangle" fill="#273678" fill-rule="evenodd" stroke="none" d="M 0 32 L 64 32 L 64 0 L 0 0 Z"/>
    <path id="Rectangle-copy-3" fill="#4258ba" fill-rule="evenodd" stroke="none" d="M 63 32 L 64 32 L 64 0 L 63 0 Z"/>
    <path id="Rectangle-copy-4" fill="#1b275c" fill-rule="evenodd" stroke="none" d="M 0 32 L 64 32 L 64 31.25 L 0 31.25 Z"/>
    <path id="Rectangle-copy" fill="#4258ba" fill-rule="evenodd" stroke="none" d="M 0 32 L 1 32 L 1 0 L 0 0 Z"/>
    <path id="Rectangle-copy-2" fill="#637ce8" fill-rule="evenodd" stroke="none" d="M 0 0.75 L 64 0.75 L 64 0 L 0 0 Z"/>
    <path id="Path" fill="#ffffff" fill-rule="evenodd" stroke="none" d="M 47.251808 21.743118 L 43.769596 27.168678 L 40.634541 26.723654 L 39.380409 19.652279 L 35.734035 18.683708 L 31.187229 15.500944 L 25.958401 15.955626 L 22.972075 14.960186 L 18.456169 20.502432 L 15.500744 19.36573 L 15.060574 12.323015 L 13 11.636158 L 18.001488 7.544029 L 50.056477 16.182964 L 50.283817 22.548496 L 47.251808 21.743118 Z"/>
    <path id="path1" fill="#e95fda" fill-rule="evenodd" stroke="none" d="M 18.252239 7.574253 L 18.496758 7.574253 C 19.223942 7.574253 20.110146 6.295023 20.96797 6.11467 C 23.680023 5.544542 24.86891 7.209082 26.559736 8.708492 C 27.766977 9.779079 30.673271 8.827944 32.205353 9.543385 C 33.618484 10.203352 33.383404 11.181553 35.117344 11.549536 C 37.301689 12.013058 38.839828 11.157419 40.951553 11.176895 C 42.330948 11.189629 41.400948 13.240854 43.321663 13.072042 C 45.313568 12.896971 49.539364 11.847767 48.239201 15.41354 C 47.526199 17.368427 43.426041 15.163784 42.117119 14.730074 C 39.094528 13.728531 36.278481 13.716688 33.199734 13.250168 C 30.468033 12.836317 28.500729 11.283287 26.02747 10.433138 C 24.770178 10.001116 22.572952 10.712889 21.529591 9.992363 C 20.792824 9.483662 20.357311 9.09668 19.452629 8.692291 C 18.980301 8.481123 18.72238 8.145344 18.430634 7.74505 C 18.382145 7.678518 18.169914 7.574253 18.252239 7.574253 Z"/>
</svg>
